<?xml version="1.0" encoding="UTF-8"?>
<svg id="Capa_1" data-name="Capa 1" xmlns="http://www.w3.org/2000/svg" xmlns:xlink="http://www.w3.org/1999/xlink" viewBox="0 0 254 72">
  <defs>
    <style>
      .cls-1 {
        fill: url(#Degradado_sin_nombre_81);
      }

      .cls-2 {
        fill: url(#Degradado_sin_nombre_81-3);
      }

      .cls-3 {
        fill: url(#Degradado_sin_nombre_81-4);
      }

      .cls-4 {
        fill: url(#Degradado_sin_nombre_81-2);
      }

      .cls-5 {
        fill: #0e4e96;
      }

      .cls-6 {
        fill: #1056a8;
      }
    </style>
    <linearGradient id="Degradado_sin_nombre_81" data-name="Degradado sin nombre 81" x1="25.04" y1="64.08" x2="4.66" y2="35.93" gradientUnits="userSpaceOnUse">
      <stop offset="0" stop-color="#1ce4de"/>
      <stop offset="1" stop-color="#587eec"/>
    </linearGradient>
    <linearGradient id="Degradado_sin_nombre_81-2" data-name="Degradado sin nombre 81" x1="59.62" y1="33.31" x2="33.43" y2="6.63" xlink:href="#Degradado_sin_nombre_81"/>
    <linearGradient id="Degradado_sin_nombre_81-3" data-name="Degradado sin nombre 81" x1="36.8" y1="29.54" x2="37.91" y2="22.86" xlink:href="#Degradado_sin_nombre_81"/>
    <linearGradient id="Degradado_sin_nombre_81-4" data-name="Degradado sin nombre 81" x1="28.34" y1="50.87" x2="26.8" y2="35.33" xlink:href="#Degradado_sin_nombre_81"/>
  </defs>
  <g>
    <path class="cls-6" d="M59.47,35.65h-6.36c0,12.48-10.12,22.6-22.6,22.6v6.36c15.99,0,28.96-12.96,28.96-28.96Z"/>
    <path class="cls-1" d="M7.91,35.65H1.56c0,15.99,12.96,28.96,28.96,28.96v-6.36c-12.48,0-22.6-10.12-22.6-22.6Z"/>
    <path class="cls-4" d="M30.56,6.69v6.36c12.46.02,22.55,10.13,22.55,22.6h6.36c0-15.98-12.94-28.93-28.91-28.96Z"/>
    <path class="cls-6" d="M30.51,13.05v-6.36C14.52,6.69,1.56,19.66,1.56,35.65h6.36c0-12.48,10.12-22.6,22.6-22.6Z"/>
  </g>
  <polygon class="cls-2" points="30.51 25.74 30.51 32.36 44.12 27.12 39.5 22.19 30.51 25.74"/>
  <polygon class="cls-5" points="44.12 33.75 44.12 27.12 30.51 32.36 37 36.36 44.12 33.75"/>
  <polygon class="cls-6" points="37.1 47.45 37 36.36 30.51 32.36 30.56 53.28 37.1 47.45"/>
  <polygon class="cls-6" points="30.55 25.74 30.55 32.36 16.94 27.12 21.56 22.19 30.55 25.74"/>
  <polygon class="cls-5" points="16.94 33.75 16.94 27.12 30.55 32.36 24.06 36.36 16.94 33.75"/>
  <polygon class="cls-3" points="23.96 47.45 24.06 36.36 30.55 32.36 30.5 53.28 23.96 47.45"/>
  <g>
    <path class="cls-6" d="M84.93,26.08v3.71h-7.57v15.23h-3.79v-15.23h-7.57v-3.71h18.93Z"/>
    <path class="cls-6" d="M105.27,29.78h-15.23v3.76h7.92v3.81h-7.92v3.84h15.23v3.81h-18.96v-18.96h18.96v3.73Z"/>
    <path class="cls-6" d="M124.61,38.43h1.97c0,.91-.18,1.76-.53,2.56-.36.8-.84,1.5-1.44,2.09-.6.6-1.31,1.07-2.11,1.41s-1.65.52-2.56.52h-5.73c-.94,0-1.82-.17-2.64-.52-.82-.35-1.53-.82-2.13-1.41-.6-.6-1.08-1.3-1.43-2.11-.35-.81-.52-1.68-.52-2.6v-5.73c0-.92.17-1.79.52-2.59s.82-1.5,1.43-2.11c.6-.6,1.32-1.08,2.13-1.43.82-.35,1.7-.52,2.64-.52h5.73c.89,0,1.74.17,2.55.52.81.35,1.52.82,2.12,1.41.6.6,1.08,1.29,1.44,2.08.36.79.53,1.64.53,2.55h-3.84c0-.37-.08-.73-.23-1.07-.15-.34-.36-.64-.61-.89-.26-.26-.56-.46-.89-.61-.34-.15-.69-.23-1.07-.23h-5.73c-.41,0-.79.07-1.13.21-.35.14-.65.34-.91.6-.26.26-.46.56-.61.92-.15.36-.23.74-.23,1.15v5.73c0,.84.28,1.51.83,2.03.55.52,1.24.77,2.05.77h5.73c.37,0,.73-.07,1.08-.21.35-.14.64-.34.89-.59.25-.25.45-.54.6-.87.15-.33.23-.69.23-1.08h1.87Z"/>
    <path class="cls-6" d="M131.17,26.05h1.28l11.41,6.56v-6.56h3.81v18.96h-3.81v-8.05l-11.41-6.56v14.61h-3.81v-18.96h2.53Z"/>
    <path class="cls-6" d="M156.5,45.01c-.91,0-1.76-.17-2.57-.52s-1.51-.82-2.11-1.41c-.6-.6-1.07-1.3-1.41-2.11-.35-.81-.52-1.67-.52-2.57v-5.71c0-.91.17-1.76.52-2.57.35-.81.82-1.51,1.41-2.11.6-.6,1.3-1.07,2.11-1.41s1.67-.52,2.57-.52h5.71c.91,0,1.76.17,2.57.52.81.35,1.51.82,2.11,1.41.6.6,1.07,1.3,1.41,2.11.35.81.52,1.67.52,2.57v5.71c0,.91-.17,1.76-.52,2.57-.35.81-.82,1.51-1.41,2.11s-1.3,1.07-2.11,1.41c-.81.35-1.67.52-2.57.52h-5.71ZM154.5,30.69c-.27.27-.48.56-.64.89-.16.33-.24.7-.24,1.11v5.71c0,.39.08.76.23,1.09.15.34.36.64.63.89.27.26.57.46.92.6.35.14.72.21,1.11.21h5.71c.8,0,1.47-.27,2-.8.53-.53.8-1.2.8-2v-5.71c0-.39-.07-.76-.21-1.11-.14-.35-.34-.65-.6-.92-.26-.27-.56-.48-.89-.63-.34-.15-.7-.23-1.09-.23h-5.71c-.41,0-.78.08-1.11.24-.33.16-.63.37-.89.64Z"/>
    <path class="cls-6" d="M187.87,38.43h1.97c0,.91-.18,1.76-.53,2.56-.36.8-.84,1.5-1.44,2.09-.6.6-1.31,1.07-2.11,1.41s-1.65.52-2.56.52h-5.73c-.94,0-1.82-.17-2.64-.52-.82-.35-1.53-.82-2.13-1.41-.6-.6-1.08-1.3-1.43-2.11-.35-.81-.52-1.68-.52-2.6v-5.73c0-.92.17-1.79.52-2.59s.82-1.5,1.43-2.11c.6-.6,1.32-1.08,2.13-1.43.82-.35,1.7-.52,2.64-.52h5.73c.89,0,1.74.17,2.55.52.81.35,1.52.82,2.12,1.41.6.6,1.08,1.29,1.44,2.08.36.79.53,1.64.53,2.55h-3.84c0-.37-.08-.73-.23-1.07-.15-.34-.36-.64-.61-.89-.26-.26-.56-.46-.89-.61-.34-.15-.69-.23-1.07-.23h-5.73c-.41,0-.79.07-1.13.21-.35.14-.65.34-.91.6-.26.26-.46.56-.61.92-.15.36-.23.74-.23,1.15v5.73c0,.84.28,1.51.83,2.03.55.52,1.24.77,2.05.77h5.73c.37,0,.73-.07,1.08-.21.35-.14.64-.34.89-.59.25-.25.45-.54.6-.87.15-.33.23-.69.23-1.08h1.87Z"/>
    <path class="cls-6" d="M210.97,29.78h-15.23v3.76h7.92v3.81h-7.92v3.84h15.23v3.81h-18.96v-18.96h18.96v3.73Z"/>
    <path class="cls-6" d="M213.35,26.02h13.28c.8.11,1.55.35,2.25.72.7.37,1.31.85,1.81,1.43.51.58.91,1.22,1.2,1.93.29.71.44,1.45.44,2.21v.53c0,.52-.07,1.04-.21,1.56-.14.52-.35,1.02-.61,1.49-.27.47-.58.9-.95,1.29-.36.39-.76.72-1.19.99l3.04,6.83h-4.19l-2.53-5.76h-8.51v5.76h-3.84v-18.99ZM217.19,35.41h8.51c.39,0,.76-.07,1.11-.21.35-.14.65-.34.92-.6.27-.26.48-.56.63-.89.15-.34.23-.71.23-1.12,0-.37-.08-.73-.24-1.08-.16-.35-.37-.65-.64-.92-.27-.27-.57-.48-.92-.64s-.71-.24-1.08-.24h-8.51v5.71Z"/>
    <path class="cls-6" d="M252.44,26.08v3.71h-7.57v15.23h-3.79v-15.23h-7.57v-3.71h18.93Z"/>
  </g>
</svg>